<svg width="166" height="67" viewBox="0 0 166 67" fill="none" xmlns="http://www.w3.org/2000/svg">
<path d="M16.6 0.663334C13.197 1.57547 9.379 3.48266 6.64 5.63861C3.735 7.91895 2.6145 9.28716 1.1205 12.5211C0.1245 14.5527 0 15.3819 0 18.9475C0 22.4302 0.166 23.3423 1.079 25.291C2.075 27.4884 4.3575 30.5565 6.0175 32.0491C7.387 33.2514 14.11 36.4024 16.8905 37.0658C24.7755 39.0974 35.358 37.8121 41.168 34.1636C42.0395 33.6246 42.911 33.1685 43.1185 33.1685C44.073 33.1685 49.385 27.0323 49.385 25.9129C49.385 25.7885 47.642 25.7056 45.567 25.7056H41.7075L40.5455 27.4884C39.923 28.442 39.093 29.6029 38.678 30.059C34.7355 34.6196 25.896 36.361 18.4675 33.9977C15.6455 33.127 14.857 32.6295 12.8235 30.5979C11.454 29.2712 9.9185 27.1982 9.2545 25.83C8.217 23.5911 8.134 23.0521 8.1755 18.6573C8.217 14.4697 8.3415 13.6405 9.213 12.0236C10.873 8.91401 12.118 7.46289 14.525 5.84592C17.928 3.52412 20.086 2.81929 24.319 2.57053C28.8425 2.32176 31.789 3.06805 35.4825 5.30693C38.18 6.9239 38.8025 7.54581 40.5455 10.2408L41.7075 12.0236H45.567C47.642 12.0236 49.385 11.9406 49.385 11.8163C49.385 11.4017 47.393 8.4994 46.646 7.75311C42.9525 4.27041 38.429 1.74131 33.4075 0.456032C30.876 -0.20734 19.339 -0.0829582 16.6 0.663334Z" fill="#F8EEEE" fill-opacity="0.9"/>
<path d="M60.59 18.45V36.9H73.455H86.32V35.4489V33.9978H77.19H68.06V16.9989V1.52588e-05H64.325H60.59V18.45Z" fill="#F8EEEE" fill-opacity="0.9"/>
<path d="M96.6951 18.45V36.9415L100.555 36.8171L104.373 36.6927L104.497 18.3256L104.58 0H100.638H96.6951V18.45Z" fill="#F8EEEE" fill-opacity="0.9"/>
<path d="M132.385 0.456139C128.484 1.53411 123.753 3.81445 121.844 5.59726C121.222 6.17771 120.599 6.63378 120.392 6.63378C120.06 6.63378 118.566 8.54097 117.279 10.5725C112.424 18.3672 115.453 28.9396 124.002 33.7491C131.472 37.9366 140.81 39.1804 149.11 37.0659C151.89 36.4025 158.613 33.2515 159.983 32.0492C161.643 30.5566 163.925 27.4885 164.921 25.2911C165.834 23.3424 166 22.4303 166 18.9476C166 15.382 165.876 14.5528 164.88 12.5212C163.386 9.28726 162.265 7.91906 159.36 5.63872C156.538 3.39985 152.762 1.53411 149.193 0.621979C146.412 -0.0828514 134.875 -0.207233 132.385 0.456139ZM147.325 3.56569C151.89 5.38996 154.546 7.75322 156.787 11.9822C157.659 13.6821 157.783 14.4284 157.825 18.6574C157.866 23.0522 157.783 23.5912 156.746 25.8301C156.082 27.1983 154.546 29.2713 153.177 30.5981C150.064 33.7076 146.246 35.0343 140.519 35.0343C134.045 35.0343 129.397 32.9613 126.285 28.6909C124.002 25.5398 123.131 22.8449 123.131 18.8647C123.131 11.3603 127.364 5.72165 134.834 3.234C137.863 2.23895 144.503 2.40479 147.325 3.56569Z" fill="#F8EEEE" fill-opacity="0.9"/>
<path d="M21.995 49.421C21.7045 50.1673 20.75 52.5306 19.8785 54.6451C18.9655 56.7596 18.26 58.7082 18.26 58.9984C18.26 59.2887 18.0525 59.7447 17.845 59.952C17.596 60.2008 17.015 61.4032 16.5585 62.647C15.189 66.2541 15.1475 66.337 16.0605 66.337C16.849 66.337 17.762 64.7615 18.4675 62.2738C18.7165 61.4446 18.9655 61.3617 21.9535 61.3617H25.232L26.145 63.8493C27.058 66.2955 27.0995 66.337 28.718 66.337C30.5855 66.337 30.5855 66.2541 28.967 62.3982C28.5105 61.2373 27.805 59.496 27.39 58.4594C25.1075 52.7793 22.991 48.0943 22.7835 48.0943C22.6175 48.0943 22.2855 48.7162 21.995 49.421ZM23.1155 56.3864C23.24 56.9669 23.6135 57.9205 23.9455 58.5424L24.5265 59.7033H22.2025C19.588 59.7033 19.422 59.413 20.75 56.801C21.2065 55.8889 21.58 54.8524 21.58 54.4378C21.6215 53.7744 21.663 53.7744 22.244 54.5207C22.576 54.9767 22.991 55.806 23.1155 56.3864Z" fill="#F8EEEE" fill-opacity="0.9"/>
<path d="M48.804 49.2137C48.4305 49.96 48.14 50.8307 48.14 51.2038C48.14 51.577 47.7665 52.572 47.3515 53.4012C46.895 54.2305 46.1065 56.0962 45.567 57.5058C45.069 58.957 44.5295 60.1179 44.3635 60.1179C44.0315 60.1179 43.16 58.1692 43.16 57.4229C43.16 57.0912 42.7865 56.0133 42.3715 55.0597C41.915 54.0646 41.1265 52.1989 40.6285 50.8721C39.7155 48.5503 39.6325 48.5089 38.097 48.5089C37.2255 48.5089 36.52 48.6333 36.52 48.7991C36.52 49.0479 39.2175 56.0962 40.67 59.7033C41.085 60.7398 41.832 62.647 42.33 63.9737C43.326 66.5443 43.824 66.876 44.3635 65.4248C44.571 64.8859 45.5255 62.3982 46.48 59.9106C47.4345 57.3815 48.3475 54.9767 48.5135 54.5207C48.7625 53.8573 49.0115 54.1475 49.717 56.0547C50.215 57.3815 50.796 58.7911 51.0035 59.1643C51.46 60.0764 52.8295 63.1445 53.535 64.9688C53.8255 65.7151 54.199 66.337 54.4065 66.337C54.78 66.337 56.44 62.7714 56.44 61.9007C56.44 61.569 56.7305 60.7398 57.1455 59.9935C57.519 59.2472 57.9755 58.0863 58.1415 57.4229C58.3905 56.3864 60.0505 51.9501 61.2125 49.2137C61.42 48.6747 61.2955 48.5089 60.6315 48.5089C59.7185 48.5089 59.345 49.2137 57.6435 53.8988C57.1455 55.1426 56.606 56.8425 56.357 57.6302C55.444 60.7812 55.195 60.8642 54.0745 58.2107C52.788 55.1011 51.875 53.0281 50.547 50.1673L49.5095 47.887L48.804 49.2137Z" fill="#F8EEEE" fill-opacity="0.9"/>
<path d="M74.1605 49.2137C73.8285 49.8356 73.4135 50.8307 73.289 51.4111C73.123 51.9916 72.625 53.1939 72.21 54.1061C70.6745 57.3815 68.143 63.6835 67.8525 65.0102C67.645 66.0882 67.728 66.337 68.226 66.337C68.5995 66.337 69.0975 65.8394 69.3465 65.2175C69.5955 64.5542 70.052 63.4347 70.384 62.6884L70.965 61.3617H74.0775C77.107 61.3617 77.2315 61.4032 77.6465 62.4811C79.1405 66.2955 79.182 66.337 80.6345 66.337C82.4605 66.337 82.6265 66.0882 81.9625 64.5127C78.933 57.34 76.8165 52.2818 75.945 49.8356C75.2395 48.0114 74.8245 47.8455 74.1605 49.2137ZM75.4885 57.0912C75.9865 58.2521 76.36 59.3301 76.36 59.4545C76.36 59.5789 75.3225 59.7033 74.036 59.7033C71.961 59.7033 71.7535 59.6203 72.0025 58.957C72.1685 58.5838 72.6665 57.1327 73.1645 55.7645C73.8285 53.8158 74.0775 53.4842 74.3265 54.1061C74.4925 54.5621 75.032 55.8889 75.4885 57.0912Z" fill="#F8EEEE" fill-opacity="0.9"/>
<path d="M140.436 48.6747C138.776 49.421 137.78 50.8307 137.78 52.5306C137.78 54.189 139.44 56.1791 143.009 58.7082C144.42 59.7033 145.706 60.8227 145.831 61.1958C147.034 64.3883 142.884 66.0882 139.274 63.8908L137.78 62.9372V64.181C137.78 65.798 139.066 66.337 143.009 66.337C146.038 66.337 146.204 66.2955 147.574 64.9273C150.396 62.108 149.192 58.957 143.797 54.9353C142.096 53.6915 140.685 52.4062 140.685 52.0745C140.685 50.0429 142.843 49.2552 145.457 50.3331C147.449 51.1624 147.408 51.2038 147.242 49.8771C147.159 49.0893 146.827 48.6747 146.08 48.4674C144.378 47.9699 141.805 48.0943 140.436 48.6747Z" fill="#F8EEEE" fill-opacity="0.9"/>
<path d="M91.715 57.4645V66.3785L93.292 66.2542L94.8275 66.1298L95.035 62.9373L95.2425 59.7448L96.944 61.2789C101.302 65.2591 102.754 66.3371 103.626 66.3371C105.037 66.3371 104.788 65.8396 102.464 63.808C101.302 62.8129 99.932 61.6106 99.434 61.1545C98.936 60.6984 98.0645 59.9936 97.525 59.6204L96.4875 58.9156L97.7325 58.8742C98.438 58.8742 99.766 58.501 100.762 58.0449C102.671 57.1743 103.335 56.0548 103.335 53.5672C103.294 49.8772 101.219 48.509 95.5745 48.509H91.715V57.4645ZM98.77 50.582C99.932 51.2039 100.43 53.1526 99.932 54.8939C99.4755 56.3865 98.106 57.2157 96.031 57.2157C95.0765 57.2157 95.035 57.1328 95.035 53.6916V50.1674H96.529C97.3175 50.1674 98.355 50.3333 98.77 50.582Z" fill="#F8EEEE" fill-opacity="0.9"/>
<path d="M113.71 57.4229V66.337H117.57C120.89 66.337 121.72 66.1711 123.546 65.3005C124.874 64.6371 126.077 63.6006 126.824 62.5226C127.903 60.9885 128.028 60.491 128.028 57.4229C128.028 54.3548 127.903 53.8573 126.824 52.3233C126.077 51.2453 124.874 50.2088 123.546 49.5454C121.72 48.6747 120.89 48.5089 117.57 48.5089H113.71V57.4229ZM120.848 50.5405C122.716 51.2453 124.376 53.3183 124.832 55.4328C125.911 60.4081 122.923 64.6785 118.275 64.6785H116.615V57.4229V50.1673H118.234C119.147 50.1673 120.309 50.3332 120.848 50.5405Z" fill="#F8EEEE" fill-opacity="0.9"/>
</svg>
