<svg width="108" height="33" viewBox="0 0 108 33" fill="none" xmlns="http://www.w3.org/2000/svg">
<path d="M10.9524 0.133316C10.6402 0.200264 9.99892 0.392738 9.51797 0.551741C4.58192 2.25891 0.979018 6.86996 0.135248 12.5605C0.0171203 13.3221 0.0002449 14.728 0.0002449 22.4186C0.0002449 32.0926 -0.0250682 31.5989 0.439005 32.0256C0.877766 32.4357 1.10558 32.4692 3.47658 32.4692C5.99101 32.4692 6.17664 32.4273 6.63228 31.8332L6.87697 31.5235L6.90228 26.6363L6.91916 21.7575H9.13827C11.1043 21.7575 11.3911 21.7324 11.6865 21.5985C12.0746 21.4311 12.4543 21.0211 12.5555 20.6863C12.5893 20.5608 12.6146 19.6905 12.6146 18.7448C12.6146 16.8117 12.564 16.5941 11.9987 16.1674L11.7033 15.9414L9.30703 15.9163L6.91916 15.8912V15.3054C6.91916 11.8157 8.51388 8.87839 11.1043 7.58965C11.3321 7.47249 11.8299 7.28838 12.1927 7.18796C12.7074 7.03732 12.9352 6.92017 13.1715 6.68585C13.6356 6.22558 13.6862 5.849 13.6524 3.22966L13.6271 1.02038L13.374 0.660532C12.9015 -0.000579834 12.2433 -0.142845 10.9524 0.133316Z" fill="#F8EEEE" fill-opacity="0.9"/>
<path d="M25.6698 5.89104C24.2016 6.09188 22.4635 6.6693 21.2569 7.34715C19.0715 8.58569 17.2236 10.5104 16.1099 12.7197C14.0089 16.8789 14.2029 22.0841 16.6246 26.1428C18.5568 29.3898 21.7125 31.6074 25.4588 32.3438C26.3701 32.528 29.4752 32.5028 30.3949 32.3104C32.7828 31.8083 34.985 30.8124 36.951 29.3479C37.6682 28.8123 37.9044 28.4776 37.9044 27.9922C37.9044 27.4985 37.7779 27.2976 36.47 25.6825C34.985 23.8498 34.8922 23.7745 34.2678 23.8163C33.8543 23.8498 33.694 23.9168 33.0696 24.3352C30.1502 26.2767 27.2392 26.6114 24.7416 25.2892C23.4085 24.5862 22.3622 23.49 21.6534 22.0673L21.2906 21.3309L30.2514 21.2891C37.3138 21.2556 39.2545 21.2221 39.3979 21.1384C39.8957 20.8623 39.9801 20.084 39.7185 18.2095C39.4401 16.201 38.9254 14.4604 38.1154 12.795C36.3435 9.17985 33.6181 6.92873 29.9899 6.09188C29.2642 5.92451 28.8002 5.8743 27.6526 5.84919C26.8679 5.83245 25.9735 5.84919 25.6698 5.89104ZM28.5386 11.6318C28.8424 11.6988 29.4077 11.908 29.7958 12.0921C30.3611 12.3682 30.6565 12.5775 31.2387 13.1633C31.863 13.7658 32.0318 14.0085 32.3609 14.678C32.5803 15.1131 32.7743 15.6152 32.8081 15.7826L32.8587 16.1006H27.1126H21.3666L21.4172 15.8663C21.915 13.8244 23.5182 12.2344 25.6698 11.6569C26.3701 11.4645 27.7876 11.4561 28.5386 11.6318Z" fill="#F8EEEE" fill-opacity="0.9"/>
<path d="M41.665 7.03732C41.1756 7.28001 40.8634 7.80723 40.8634 8.39302C40.8719 8.78634 41.3612 9.88261 46.196 20.2846C49.1239 26.5861 51.6046 31.8415 51.7059 31.9503C52.1277 32.4022 52.4315 32.4692 54.2203 32.4692C55.1231 32.4692 56.0091 32.4273 56.1863 32.3771C56.3635 32.3353 56.6166 32.1763 56.76 32.0256C56.9372 31.8415 58.6248 28.2849 62.2952 20.3767C67.7628 8.58549 67.7712 8.57713 67.6025 7.91602C67.5265 7.61475 67.054 7.11264 66.7334 6.97874C66.5309 6.88669 65.9065 6.86159 64.2021 6.86159C62.0927 6.86159 61.9324 6.86996 61.5864 7.03732C61.3923 7.12938 61.1561 7.31348 61.0717 7.43064C60.9789 7.55617 59.4179 10.9621 57.5869 14.9958C55.7644 19.0294 54.2625 22.3266 54.254 22.3182C54.2456 22.3098 52.7521 19.0043 50.9296 14.979C49.1071 10.9538 47.5461 7.55617 47.4533 7.43064C47.3689 7.31348 47.1326 7.12938 46.9386 7.03732C46.5926 6.86996 46.4323 6.86159 44.2976 6.86159C42.1544 6.86159 42.0109 6.86996 41.665 7.03732Z" fill="#F8EEEE" fill-opacity="0.9"/>
<path d="M79.9205 5.85479C76.8155 6.23137 73.9973 7.69586 71.9638 9.97209C70.5125 11.6039 69.4493 13.7128 68.96 15.9388C68.1331 19.7465 68.9768 23.9224 71.2128 27.0606C71.9975 28.1652 73.5079 29.6548 74.571 30.3494C76.0054 31.295 77.5327 31.931 79.2455 32.2992C80.334 32.5419 83.4391 32.5168 84.5613 32.2741C86.8985 31.7553 88.8898 30.8515 90.7883 29.4539C91.6827 28.7928 91.9021 28.4916 91.9021 27.9141C91.9021 27.5041 91.6236 27.0773 90.2398 25.3869C89.0501 23.9391 88.8307 23.7717 88.2148 23.8136C87.8604 23.847 87.6495 23.9391 87.0673 24.3241C84.0972 26.2823 81.2368 26.617 78.7393 25.2864C77.4145 24.5835 76.3767 23.5039 75.6511 22.0646L75.2798 21.3281L84.2406 21.2863C91.2861 21.2528 93.2521 21.2193 93.3955 21.1357C93.809 20.9013 93.9271 20.4076 93.8343 19.2695C93.3112 13.1186 90.2905 8.42392 85.675 6.60795C84.3419 6.08074 83.2956 5.87989 81.6503 5.84642C80.8656 5.82968 80.0808 5.83805 79.9205 5.85479ZM82.5362 11.6207C83.5319 11.855 84.4347 12.3655 85.2447 13.1689C85.8607 13.7714 86.0294 14.0057 86.3585 14.6752C86.5779 15.1103 86.7719 15.6125 86.8057 15.7798L86.8563 16.0978H81.1102H75.3642L75.4148 15.8635C75.9126 13.8216 77.5158 12.2316 79.6674 11.6542C80.3677 11.4617 81.7853 11.4533 82.5362 11.6207Z" fill="#F8EEEE" fill-opacity="0.9"/>
<path d="M105.571 5.99126C102.905 6.55195 100.753 7.75702 98.8207 9.76546C96.8379 11.8241 95.7157 14.0501 95.0491 17.2385C94.931 17.7657 94.9057 18.9122 94.8803 24.5777C94.8466 31.0884 94.855 31.2976 95.0069 31.6072C95.4288 32.4106 95.6482 32.4692 98.3145 32.4692C100.753 32.4692 100.888 32.4441 101.158 31.942C101.301 31.6909 101.31 31.1721 101.36 24.9794C101.411 17.6235 101.386 17.9331 101.943 16.636C102.795 14.661 104.702 13.0124 106.626 12.5856C107.073 12.4936 107.545 12.1588 107.748 11.8157C107.925 11.4977 107.933 11.4057 107.933 9.21313C107.933 6.78627 107.917 6.69422 107.495 6.3009C107.233 6.04984 106.735 5.85737 106.398 5.86574C106.246 5.86574 105.875 5.92432 105.571 5.99126Z" fill="#F8EEEE" fill-opacity="0.9"/>
</svg>
