<svg width="167" height="41" viewBox="0 0 167 41" fill="none" xmlns="http://www.w3.org/2000/svg">
<path d="M8.04513 0.0865014C6.90699 0.213156 5.69067 0.575028 4.70892 1.08165C3.93568 1.47971 3.68373 1.66064 3.0495 2.33011C2.20676 3.1986 1.72023 4.05804 1.39878 5.23412C1.12945 6.21117 1.05994 8.26479 1.25977 9.31422C1.71154 11.6392 3.24933 13.2677 5.91656 14.2176C6.28146 14.3442 7.68023 14.7423 9.03557 15.0861C10.5299 15.4751 11.7289 15.837 12.0938 16.0088C13.2493 16.5607 13.7445 17.4201 13.6142 18.6505C13.397 20.8398 11.3987 22.0611 8.60985 21.7083C6.66373 21.455 5.45609 20.7132 3.86618 18.7772L3.44047 18.2615L1.72023 19.7994L0 21.3464L0.286705 21.7264C0.851428 22.4954 2.02431 23.6172 2.80624 24.1419C4.62204 25.3632 6.50734 25.8608 9.34833 25.8608C13.0668 25.8608 15.6559 24.6938 17.1328 22.3506C18.0538 20.8851 18.4708 18.8405 18.2536 16.814C18.0103 14.4709 16.9938 12.9963 14.9087 11.9287C13.7705 11.3497 13.1276 11.1417 10.2171 10.3817C8.87918 10.038 7.54991 9.63086 7.2632 9.49516C6.15982 8.9614 5.70805 8.27384 5.70805 7.13395C5.69936 6.25641 5.95131 5.65027 6.5421 5.09842C7.30665 4.38372 8.34921 4.10327 9.9565 4.17565C11.9287 4.25707 13.2232 4.95367 14.4308 6.57305C14.6915 6.92587 14.9347 7.20632 14.9782 7.19727C15.0129 7.18823 15.7862 6.55495 16.6897 5.78597L18.3405 4.40182L18.0624 4.02185C17.5325 3.30716 16.2901 2.10393 15.6124 1.6335C13.701 0.330765 10.9469 -0.230136 8.04513 0.0865014Z" fill="#F8EEEE" fill-opacity="0.9"/>
<path d="M48.6617 12.9691V25.137H50.9206H53.1795V19.9351V14.7332H57.8276H62.4757V12.6525V10.5717H57.8276H53.1795V7.76721V4.96271H58.7833H64.3871V2.88195V0.801186H56.5244H48.6617V12.9691Z" fill="#F8EEEE" fill-opacity="0.9"/>
<path d="M116.95 3.60569V5.59599H118.991H121.033V3.60569V1.6154H118.991H116.95V3.60569Z" fill="#F8EEEE" fill-opacity="0.9"/>
<path d="M108.192 7.32389C106.993 7.48673 105.534 8.06573 104.7 8.70805C103.318 9.78461 102.197 11.6121 101.685 13.6204C101.389 14.7965 101.303 17.1306 101.52 18.5057C101.98 21.5364 103.44 23.8705 105.586 24.9923C106.698 25.5713 107.523 25.7793 108.957 25.8336C112.484 25.9693 114.63 24.6847 116.342 21.4097L116.68 20.7584L114.969 19.8265C114.031 19.3199 113.24 18.8947 113.214 18.8947C113.188 18.8947 113.092 19.0666 112.997 19.2747C112.71 19.8899 112.032 20.8398 111.624 21.1926C110.964 21.7535 110.495 21.9254 109.608 21.9254C108.696 21.9254 108.131 21.7445 107.506 21.2469C106.689 20.6046 106.081 19.4556 105.82 18.0805C105.655 17.1939 105.681 15.4569 105.864 14.5975C106.342 12.4172 107.593 11.0602 109.252 10.9516C110.729 10.8521 111.85 11.6302 112.684 13.331C112.849 13.6566 112.997 13.9009 113.031 13.8919C113.058 13.8738 113.874 13.4757 114.847 13.0143C115.812 12.5529 116.602 12.1277 116.602 12.0825C116.602 12.0282 116.463 11.7206 116.289 11.3949C115.203 9.35037 113.7 8.01144 111.963 7.54101C110.842 7.24247 109.391 7.16105 108.192 7.32389Z" fill="#F8EEEE" fill-opacity="0.9"/>
<path d="M126.854 7.31486C125.916 7.43247 125.117 7.66768 124.265 8.09288C122.102 9.17849 121.068 11.404 121.468 14.0999C121.659 15.3574 122.397 16.4069 123.518 17.013C124.413 17.4925 125.29 17.7639 127.584 18.2615C130.295 18.8405 130.842 19.1119 130.99 19.9623C131.068 20.3603 130.911 20.9845 130.659 21.3464C130.547 21.4912 130.216 21.7445 129.912 21.8983C129.443 22.1425 129.243 22.1878 128.522 22.224C126.88 22.2963 125.499 21.6992 124.065 20.2789L123.744 19.9623L122.597 21.4459C121.954 22.2511 121.381 22.9839 121.32 23.0653C121.207 23.201 121.268 23.2824 121.876 23.771C123.709 25.2727 126.055 25.9603 128.896 25.8336C131.259 25.7341 133.031 25.0104 134.178 23.6805C135.056 22.6763 135.455 21.5274 135.455 20.0256C135.455 18.4967 135.116 17.4834 134.343 16.6059C133.405 15.5565 132.441 15.1403 129.287 14.4166C128.097 14.1452 126.915 13.8285 126.654 13.729C125.977 13.4576 125.62 13.0505 125.568 12.4896C125.49 11.594 125.985 11.0421 127.08 10.7979C128.939 10.3908 130.555 10.8974 131.954 12.3449L132.658 13.0777L134.013 11.6664L135.368 10.2551L135.004 9.82986C134.091 8.79853 132.675 7.93004 131.328 7.58626C130.025 7.26058 128.236 7.15202 126.854 7.31486Z" fill="#F8EEEE" fill-opacity="0.9"/>
<path d="M142.362 7.31486C140.59 7.57722 139.13 8.29192 138.027 9.4499C135.646 11.9378 134.847 16.4069 136.081 20.3422C136.724 22.4049 138.079 24.1238 139.73 24.9923C140.842 25.5713 141.667 25.7793 143.101 25.8336C146.611 25.9693 148.791 24.6666 150.477 21.4278L150.824 20.7584L149.113 19.8266C148.175 19.3199 147.384 18.8947 147.358 18.8947C147.332 18.8947 147.184 19.1481 147.028 19.4647C146.237 21.075 145.056 21.9707 143.761 21.9707C141.937 21.9616 140.625 20.7222 140.051 18.4876C139.773 17.4201 139.773 15.4389 140.043 14.3894C140.442 12.8515 141.163 11.8111 142.223 11.2683C142.745 11.006 142.866 10.9788 143.622 10.9788C144.334 10.9788 144.517 11.015 144.934 11.214C145.603 11.5397 146.298 12.3087 146.741 13.1862L147.106 13.91L147.471 13.7471C148.157 13.4305 150.694 12.2001 150.729 12.1549C150.781 12.1006 150.199 10.9245 149.851 10.3908C149.182 9.36848 148.044 8.35524 147.036 7.89386C145.916 7.37819 143.744 7.10679 142.362 7.31486Z" fill="#F8EEEE" fill-opacity="0.9"/>
<path d="M157.306 7.31486C156.376 7.45056 155.672 7.67673 154.786 8.12907C152.588 9.23277 151.137 11.2864 150.546 14.0999C150.399 14.7875 150.364 15.276 150.364 16.5426C150.364 17.8091 150.399 18.2977 150.546 18.9852C151.337 22.7849 153.778 25.2546 157.254 25.7793C158.218 25.9241 159.886 25.8336 160.746 25.6075C163.631 24.8113 165.681 22.6401 166.428 19.5642C167.141 16.6511 166.793 13.4395 165.516 11.1959C164.717 9.79367 163.717 8.82567 162.345 8.12002C161.867 7.8848 161.146 7.59531 160.737 7.49579C159.895 7.28772 158.122 7.1882 157.306 7.31486ZM160.173 11.4221C161.241 11.9739 161.91 12.9329 162.31 14.507C162.579 15.5474 162.579 17.5468 162.31 18.5781C162.015 19.7089 161.676 20.3784 161.068 21.0117C160.303 21.8078 159.79 22.0068 158.565 22.0068C157.818 22.0068 157.566 21.9706 157.149 21.7988C156.089 21.3645 155.212 20.1794 154.812 18.6505C154.552 17.6372 154.552 15.4479 154.812 14.4528C155.073 13.4576 155.473 12.6977 156.037 12.1097C156.828 11.2954 157.566 11.0059 158.765 11.0602C159.434 11.0874 159.608 11.1326 160.173 11.4221Z" fill="#F8EEEE" fill-opacity="0.9"/>
<path d="M24.5698 7.45963C22.9886 7.75817 21.8939 8.31907 20.8947 9.3504C20.1302 10.1465 19.6697 10.9426 19.4352 11.8926C19.1919 12.8606 19.0529 12.761 21.1033 13.0505C22.0937 13.1953 22.9886 13.3129 23.1015 13.3219C23.2753 13.331 23.3274 13.2496 23.4838 12.7791C23.701 12.0916 24.1788 11.4221 24.6827 11.0964C25.204 10.7617 26.2205 10.5355 26.9069 10.6079C28.436 10.7707 29.1744 11.5397 29.0963 12.9239L29.0702 13.4124L28.462 13.6295C28.1319 13.7471 26.82 14.0728 25.5515 14.3442C22.0676 15.0861 20.8252 15.5836 19.8261 16.624C18.436 18.0805 18.0972 20.7403 19.0529 22.7668C19.3917 23.4724 20.2605 24.4404 20.8947 24.8023C22.0242 25.4537 23.3621 25.7432 24.8478 25.6527C26.3335 25.5622 27.6367 25.0828 28.6619 24.2414L29.1136 23.8705V24.5038V25.137H31.1553H33.197V18.5057C33.1883 11.2231 33.1709 10.9336 32.6757 9.88416C32.0676 8.59047 30.5037 7.70389 28.323 7.40535C27.4021 7.27869 25.3604 7.30583 24.5698 7.45963ZM29.1136 17.972C29.1136 19.8175 28.8617 20.4689 27.8539 21.265C27.1241 21.835 26.5333 22.0159 25.3778 22.0159C24.4395 22.0159 24.3439 21.9978 23.8574 21.7445C23.2058 21.4007 22.8496 20.9122 22.7887 20.2608C22.7279 19.5733 22.9017 19.0486 23.3361 18.6324C23.8052 18.1801 24.3091 17.9901 26.6462 17.393C27.7062 17.1216 28.6705 16.8683 28.7835 16.823C28.8964 16.7688 29.0094 16.7326 29.0528 16.7326C29.0876 16.7235 29.1136 17.2844 29.1136 17.972Z" fill="#F8EEEE" fill-opacity="0.9"/>
<path d="M77.6016 7.42341C76.8197 7.53197 75.6207 7.95717 74.9257 8.35523C74.0829 8.84375 73.1012 9.90223 72.7015 10.7617C72.4061 11.3859 72.1194 12.3177 72.1194 12.6524C72.1194 12.7701 72.4322 12.8424 73.9266 13.0505C74.917 13.1862 75.8205 13.3219 75.9422 13.3491C76.142 13.3852 76.1681 13.3491 76.3071 12.8605C76.5938 11.8382 77.2801 11.0602 78.1403 10.7979C79.5564 10.3636 81.0334 10.6712 81.6155 11.5306C81.9109 11.9739 82.1194 13.0957 81.9456 13.3129C81.7719 13.539 80.5208 13.8919 78.2793 14.3713C75.2732 15.0046 74.1524 15.4027 73.1446 16.1897C71.3375 17.601 70.8075 20.4327 71.9196 22.7848C72.5191 24.0604 73.7528 25.0375 75.334 25.4717C76.2202 25.716 78.288 25.6979 79.1828 25.4265C79.9821 25.1913 80.877 24.739 81.4417 24.2866C81.6676 24.1057 81.8935 23.9609 81.9369 23.9609C81.9891 23.9609 82.0238 24.2233 82.0238 24.549V25.137H84.0221H86.0203V18.4424C86.0203 11.0331 86.0116 10.8612 85.473 9.82081C84.8387 8.5633 83.2836 7.69481 81.1463 7.40531C80.3557 7.29675 78.3575 7.3058 77.6016 7.42341ZM81.9891 18.0443C81.9109 19.6185 81.7719 20.116 81.1811 20.7946C80.46 21.6359 79.4695 22.0611 78.2532 22.0611C76.6807 22.0611 75.7424 21.4097 75.6207 20.2065C75.5252 19.3471 76.003 18.5419 76.837 18.171C77.0803 18.0534 78.2793 17.7096 79.4956 17.393C80.7032 17.0763 81.7197 16.7959 81.7458 16.7687C81.7719 16.7416 81.8501 16.7235 81.9196 16.7235C82.0325 16.7235 82.0412 16.9135 81.9891 18.0443Z" fill="#F8EEEE" fill-opacity="0.9"/>
<path d="M40.9728 7.64055C40.1909 7.81244 38.9225 8.45476 38.3491 8.98852L37.8886 9.41372V8.68093V7.94814H35.8903H33.8921V16.5426V25.137H35.8817H37.8799L37.9147 20.0437C37.9407 15.6289 37.9668 14.887 38.0884 14.3895C38.5576 12.5801 39.5914 11.5849 41.1119 11.4945C42.4237 11.4131 43.2752 11.9287 43.7183 13.0686L43.9268 13.6024L43.9528 19.3652L43.9789 25.137H46.0206H48.0623L48.0275 18.5057C47.9928 11.1236 48.0015 11.2231 47.3933 10.0199C46.8112 8.87996 45.7339 8.06575 44.2656 7.67674C43.4576 7.45962 41.9025 7.44152 40.9728 7.64055Z" fill="#F8EEEE" fill-opacity="0.9"/>
<path d="M94.3174 7.55008C94.2218 7.56818 93.9265 7.6315 93.6658 7.68579C92.9968 7.82149 91.9021 8.39144 91.2592 8.93424L90.7119 9.39563V8.67188V7.94814H88.7136H86.7154V16.5426V25.137H88.7049H90.7032L90.7293 20.0437C90.764 15.1132 90.7727 14.9413 90.9638 14.2899C91.2158 13.4034 91.433 12.9872 91.9021 12.4625C92.4582 11.8473 93.0837 11.5488 93.9178 11.4945C94.8995 11.4402 95.5077 11.6392 96.0203 12.1911C96.8109 13.0415 96.8804 13.6567 96.8804 20.3151V25.137H98.8786H100.886L100.86 18.4605C100.825 11.9197 100.825 11.784 100.634 11.0874C100.373 10.1103 100.069 9.56752 99.426 8.94329C98.4182 7.95719 97.115 7.48676 95.4295 7.50485C94.9169 7.5139 94.413 7.53199 94.3174 7.55008Z" fill="#F8EEEE" fill-opacity="0.9"/>
<path d="M70.4687 7.6496C69.1742 7.87577 68.0187 8.6357 67.1933 9.80273L67.0022 10.0741L66.9935 9.00662V7.94814H64.9953H62.997V16.5426V25.137H65.0387H67.0804V20.677C67.0804 14.688 67.176 14.0819 68.288 12.9148C69.0613 12.1187 70.2168 11.6664 71.4939 11.6573H72.0326V9.6218V7.58627L71.3636 7.59532C70.99 7.60437 70.5904 7.63151 70.4687 7.6496Z" fill="#F8EEEE" fill-opacity="0.9"/>
<path d="M116.95 16.5426V25.137H118.991H121.033V16.5426V7.94814H118.991H116.95V16.5426Z" fill="#F8EEEE" fill-opacity="0.9"/>
<path d="M151.094 27.4439V28.1224H151.485H151.876V27.4439V26.7654H151.485H151.094V27.4439Z" fill="#F8EEEE" fill-opacity="0.9"/>
<path d="M118.991 29.769C118.548 29.9318 118.262 30.2032 117.992 30.6827L117.732 31.1531V30.4927V29.8414H117.341H116.95V33.3244V36.8074H117.332H117.714L117.758 34.5185C117.801 32.1121 117.845 31.7593 118.227 31.1803C118.47 30.8003 119.183 30.3842 119.574 30.3842C119.904 30.3842 120.338 30.5832 120.573 30.8456C120.885 31.1984 120.938 31.7502 120.946 34.3376V36.8074H121.329H121.72L121.746 34.4733C121.78 32.5283 121.806 32.0759 121.937 31.7231C122.206 30.9632 122.953 30.3842 123.648 30.3842C124.022 30.3842 124.569 30.737 124.743 31.0898C124.882 31.3884 124.899 31.7231 124.925 34.1114L124.96 36.8074H125.342H125.725V34.4281C125.716 30.8365 125.62 30.357 124.769 29.9047C124.196 29.5971 123.362 29.57 122.806 29.8323C122.397 30.0223 121.911 30.5832 121.763 31.0265L121.667 31.3341L121.563 30.9541C121.346 30.1399 120.686 29.6604 119.773 29.6695C119.487 29.6695 119.139 29.7147 118.991 29.769Z" fill="#F8EEEE" fill-opacity="0.9"/>
<path d="M128.288 29.7961C127.775 29.9952 127.332 30.4113 127.08 30.9451C126.837 31.4427 126.785 31.9221 126.967 31.9221C127.019 31.9221 127.21 31.9493 127.384 31.9764L127.697 32.0307L127.74 31.6326C127.836 30.7732 128.392 30.357 129.461 30.357C130.512 30.357 130.972 30.7099 131.12 31.6507C131.163 31.9674 131.172 32.2478 131.137 32.284C131.103 32.3202 130.616 32.4649 130.069 32.5916C127.706 33.1615 126.915 33.6229 126.672 34.5728C126.463 35.3961 126.845 36.3008 127.567 36.6807C128.105 36.9702 129.096 37.0064 129.782 36.7712C130.26 36.6084 130.894 36.0927 130.981 35.8123C131.068 35.5408 131.198 35.5951 131.198 35.9027C131.198 36.4184 131.806 36.8074 132.614 36.8074C132.927 36.8074 132.936 36.7984 132.936 36.4998C132.936 36.2103 132.91 36.1832 132.597 36.1289C131.945 36.0113 131.945 36.0022 131.893 33.2882L131.85 30.8637L131.615 30.5018C131.242 29.9047 130.746 29.7057 129.591 29.6876C128.922 29.6695 128.531 29.7057 128.288 29.7961ZM131.12 33.822C131.103 34.1929 131.033 34.6452 130.964 34.8171C130.564 35.8394 128.983 36.5089 128.044 36.0384C127.645 35.8394 127.436 35.5047 127.428 35.0252C127.419 34.7085 127.471 34.5909 127.723 34.3195C128.027 33.9938 128.409 33.8401 130.286 33.2972C131.172 33.0349 131.163 33.0258 131.12 33.822Z" fill="#F8EEEE" fill-opacity="0.9"/>
<path d="M134.673 29.8143C134.1 30.0314 133.361 30.8365 133.118 31.5151C132.849 32.2569 132.771 33.6501 132.962 34.4281C133.37 36.0565 134.282 36.9069 135.655 36.916C136.003 36.916 136.437 36.8798 136.628 36.8165C137.106 36.6808 137.662 36.2375 137.845 35.8485C137.923 35.6675 138.001 35.5409 138.01 35.559C138.018 35.5771 138.001 36.1922 137.975 36.9431C137.914 38.4449 137.818 38.7887 137.384 39.1777C137.019 39.4943 136.559 39.6481 135.933 39.6481C135.116 39.6572 134.786 39.5486 134.361 39.1415C134.074 38.8701 133.944 38.6439 133.839 38.2911C133.7 37.7845 133.666 37.7664 133.205 37.8568C132.971 37.9111 132.936 37.9564 132.936 38.2006C132.936 38.6349 133.309 39.3586 133.718 39.7295C134.873 40.7518 137.358 40.589 138.244 39.431C138.722 38.8068 138.757 38.4449 138.757 33.8944V29.7509H138.409H138.062V30.339C138.062 30.6737 138.027 30.927 137.975 30.927C137.931 30.927 137.888 30.8908 137.888 30.8365C137.888 30.6466 137.297 30.0676 136.889 29.8776C136.359 29.6152 135.29 29.5881 134.673 29.8143ZM136.802 30.5561C137.558 30.918 137.897 31.6327 137.957 32.9625C138.001 34.0843 137.879 34.7719 137.514 35.3328C137.176 35.8485 136.715 36.1108 136.046 36.1561C134.743 36.2556 133.987 35.559 133.718 34.0029C133.448 32.465 134.004 30.9903 135.021 30.529C135.447 30.339 136.376 30.348 136.802 30.5561Z" fill="#F8EEEE" fill-opacity="0.9"/>
<path d="M141.129 29.9318C140.738 30.1308 140.52 30.3208 140.338 30.6103C140.112 30.9631 139.825 31.8045 139.904 31.8768C139.921 31.8949 140.112 31.9311 140.329 31.9673L140.72 32.0306L140.833 31.524C140.911 31.1531 141.016 30.9631 141.233 30.755C141.58 30.4384 142.328 30.2484 142.866 30.3389C143.787 30.5017 144.143 30.8726 144.204 31.7683L144.248 32.3292L142.866 32.673C140.434 33.2881 139.712 33.8219 139.712 35.0161C139.712 35.5679 139.851 35.966 140.182 36.3369C141.007 37.2868 143.257 37.0516 143.961 35.9569L144.187 35.6041L144.256 35.9208C144.352 36.3279 144.639 36.6174 145.073 36.7259C145.255 36.7712 146.567 36.8073 147.992 36.8073H150.573V36.4455V36.0836H148.748C147.679 36.0836 146.924 36.0474 146.924 36.0022C146.924 35.9569 147.723 34.6542 148.705 33.1072C150.034 31.0084 150.486 30.2303 150.486 30.0223V29.7508H148.227H145.968V30.1127V30.4746H147.619C148.531 30.4746 149.269 30.5108 149.269 30.556C149.269 30.6374 146.029 35.7579 145.82 36.0112C145.646 36.2193 145.229 36.0655 145.108 35.7398C145.056 35.6041 145.012 34.5185 144.995 33.2339C144.96 30.8093 144.943 30.6736 144.473 30.2394C144.03 29.8142 143.709 29.7147 142.666 29.6785C141.693 29.6513 141.659 29.6513 141.129 29.9318ZM144.23 33.6229C144.23 33.9124 144.169 34.3557 144.1 34.609C143.7 36.0203 141.572 36.7169 140.712 35.7217C140.581 35.577 140.538 35.396 140.538 35.0432C140.538 34.5185 140.677 34.2833 141.146 34.0209C141.389 33.8852 143.891 33.1163 144.126 33.1072C144.195 33.0982 144.23 33.261 144.23 33.6229Z" fill="#F8EEEE" fill-opacity="0.9"/>
<path d="M155.238 29.7961C154.795 29.968 154.482 30.2394 154.248 30.6375L154.048 30.9722V30.4023V29.8414H153.613H153.179V33.3244V36.8074H153.613H154.048V34.4914C154.048 31.8136 154.082 31.6145 154.656 31.0084C155.255 30.357 156.098 30.2032 156.828 30.5832C157.575 30.9903 157.566 30.927 157.592 34.0572L157.618 36.8074H158.009H158.392V34.1295C158.392 32.2749 158.357 31.3341 158.287 31.0717C158.148 30.5832 157.506 29.9137 157.036 29.769C156.567 29.6242 155.655 29.6423 155.238 29.7961Z" fill="#F8EEEE" fill-opacity="0.9"/>
<path d="M161.424 29.7871C160.642 30.0766 159.999 30.7008 159.617 31.5512C159.408 32.0216 159.391 32.1483 159.391 33.2791C159.391 34.4552 159.4 34.5186 159.66 35.0885C160.025 35.9027 160.39 36.3008 161.068 36.6445C161.606 36.925 161.711 36.9431 162.519 36.9431C163.274 36.9431 163.448 36.9069 163.865 36.7079C164.508 36.4003 164.908 36.0203 165.203 35.4504C165.333 35.1971 165.429 34.9709 165.412 34.9618C165.403 34.9438 165.229 34.8985 165.038 34.8533C164.699 34.7628 164.691 34.7719 164.43 35.179C164.117 35.6675 163.413 36.1289 162.866 36.2193C161.493 36.4274 160.355 35.4142 160.242 33.8762L160.19 33.2791H162.814H165.429V32.8811C165.429 31.5783 164.534 30.2032 163.431 29.7961C162.979 29.6333 161.858 29.6242 161.424 29.7871ZM163.353 30.6284C163.648 30.7913 163.909 31.0174 164.074 31.2617C164.317 31.6236 164.578 32.4378 164.499 32.5735C164.447 32.673 160.32 32.664 160.268 32.5644C160.147 32.3654 160.512 31.515 160.894 31.0898C161.58 30.3389 162.484 30.1761 163.353 30.6284Z" fill="#F8EEEE" fill-opacity="0.9"/>
<path d="M151.094 33.2791V36.8074H151.485H151.876V33.2791V29.7509H151.485H151.094V33.2791Z" fill="#F8EEEE" fill-opacity="0.9"/>
</svg>
