<svg width="66" height="67" viewBox="0 0 66 67" fill="none" xmlns="http://www.w3.org/2000/svg">
<g clip-path="url(#clip0_73_53)">
<path d="M6.51855 54.3956V66.1625H8.963H11.4074V59.7975V53.3906L18.0482 60.2163C21.6741 63.9431 24.8111 67 24.9741 67C25.1371 67 25.2593 61.7238 25.2593 55.275V43.55H22.8149H20.3704V49.6638V55.7775L14.2593 49.7894C10.8778 46.5231 7.78152 43.5919 7.33337 43.2569C6.51855 42.6706 6.51855 42.7544 6.51855 54.3956Z" fill="white" fill-opacity="0.9"/>
<path d="M52.6371 43.2988C47.9112 44.89 44.4075 49.6219 44.4075 54.4794C44.4075 61.6819 49.2964 67 55.8964 67C57.4038 67 59.0741 66.8325 59.6445 66.5813C60.6223 66.2044 60.7038 65.9531 60.7038 63.8175C60.7038 61.7238 60.6223 61.5144 60.0112 61.7656C59.6038 61.9331 58.2593 62.1844 56.9556 62.31C53.2482 62.6031 50.6408 60.6769 49.663 56.8663C48.8075 53.5581 50.0704 50.25 52.963 48.24C54.1852 47.4025 54.7556 47.2769 56.8334 47.4444C58.1778 47.5281 59.6038 47.7375 60.0112 47.9469C60.6223 48.1981 60.7038 47.9888 60.7038 45.9369C60.7038 43.2569 60.5815 43.1731 56.8334 42.88C55.3667 42.7963 53.6964 42.9638 52.6371 43.2988Z" fill="white" fill-opacity="0.9"/>
<path d="M27.2964 54.8144V66.1625H33.326C40.4964 66.1625 41.5964 65.7856 43.1445 62.6869C44.489 59.8813 44.1223 57.4525 42.0038 55.4006L40.4964 53.8931L41.3927 52.9719C43.4297 50.8781 43.0223 46.6069 40.6594 44.8063C39.3964 43.8431 38.9482 43.7594 33.326 43.6338L27.2964 43.5081V54.8144ZM36.5853 47.9888C37.6445 48.7425 37.7668 50.5013 36.789 51.59C36.3408 52.1344 35.5668 52.3438 34.1408 52.3438H32.1853V49.8313V47.3188H33.9371C34.8742 47.3188 36.0964 47.6119 36.5853 47.9888ZM37.4001 57.2013C38.5001 57.955 38.6223 60.0906 37.6038 61.2213C37.1149 61.7656 36.3408 61.975 34.5482 61.975H32.1853V59.2531V56.5313H34.3445C35.6075 56.5313 36.8297 56.7825 37.4001 57.2013Z" fill="white" fill-opacity="0.9"/>
<path d="M11.8555 10.4688C7.53699 11.5156 5.41847 16.1219 7.41477 20.1C8.22958 21.7331 9.49255 22.78 17.7222 28.6006C22.8962 32.2438 27.4185 35.4263 27.7851 35.6356C28.2333 35.8869 27.7037 34.2538 26.1148 30.4431C18.2111 11.8925 18.3333 12.1856 16.2963 11.0969C14.7481 10.3013 13.4037 10.1338 11.8555 10.4688Z" fill="#EC6B15"/>
<path d="M5.49995 25.2925C3.7481 26.0463 1.79254 28.5169 1.46662 30.3175C0.936988 33.2488 2.4444 36.5569 5.01106 38.0225C6.1518 38.6506 7.86291 38.7344 17.9259 38.86C25.1777 38.9438 29.374 38.86 29.1296 38.6088C28.9259 38.3994 24.7296 35.3425 19.8407 31.825C9.61477 24.4969 8.43329 23.9525 5.49995 25.2925Z" fill="#ECC115"/>
<path d="M23.5075 1.8425C20.5741 2.93125 19.1482 5.025 19.1482 8.16562C19.1482 10.0081 20.2075 12.8137 27.1334 29.48C28.6 32.9556 28.7223 33.1231 28.9667 31.9925C29.7408 28.8519 32.226 8.16562 32.0223 6.99312C31.2482 2.8475 27.2556 0.418751 23.5075 1.8425Z" fill="#C11540"/>
<path d="M56.2223 25.2506C55.4482 25.5856 52.8815 27.2188 50.5186 28.9356C48.1556 30.6525 44.2445 33.5 41.7593 35.175L37.2778 38.3156L48.0741 38.4413C54.0223 38.525 59.4408 38.4413 60.1741 38.3156C61.8038 38.0225 63.8001 35.7613 64.3704 33.5C65.6741 28.5169 60.7445 23.5756 56.2223 25.2506Z" fill="#15C140"/>
<path d="M37.4815 2.17749C36.137 2.88936 35.4037 3.64311 34.7519 5.02499C33.4074 7.70499 33.4889 8.79374 34.9963 8.79374C36.463 8.79374 36.9926 9.46374 35.8519 9.84061C34.0593 10.4269 34.0593 11.2225 35.6889 22.6962C37.0333 31.9925 37.3185 33.4162 37.7259 32.5787C38.0111 32.0344 40.2111 26.7162 42.6148 20.7281C45.7111 13.0231 46.9741 9.37999 46.9741 8.16561C46.9741 3.14061 41.8 -0.125637 37.4815 2.17749Z" fill="#6B6BC1"/>
<path d="M50.1111 10.8456C49.337 11.3062 48.3592 11.9762 47.9926 12.395C47.0555 13.4837 37.6037 35.4681 37.9704 35.8031C38.2148 36.0125 57.2407 22.2356 57.9333 21.3562C60.7037 17.8387 59.4 12.7719 55.2037 10.8456C53.1667 9.88249 51.9037 9.88249 50.1111 10.8456Z" fill="#1596C1"/>
<path d="M21.7148 0.795631C19.3926 1.88438 17.8445 4.39688 17.6 7.37C17.4371 9.33813 17.3148 9.63125 16.7445 9.33813C16.3778 9.17063 14.7889 9.00313 13.2 9.00313C10.7556 9.00313 10.063 9.17063 8.63705 10.1338C5.7852 12.1019 4.56298 15.6613 5.50002 19.3463C5.7852 20.4769 6.43705 21.8588 6.92594 22.4031L7.86298 23.45H6.76298C4.4815 23.45 1.75187 25.6275 0.570386 28.3494C-0.162948 30.1081 -0.162948 34.0444 0.570386 35.5519C1.46668 37.3106 3.82964 39.2788 5.66298 39.7813C6.76298 40.0744 16.0111 40.2 34.1408 40.1163L60.9482 39.9906L62.6185 38.86C65.5926 36.85 66.8963 31.9506 65.4704 28.3494C64.6148 26.3394 61.8037 23.9106 59.9296 23.6175C58.5037 23.3663 58.3815 23.2825 58.9111 22.7381C61.1111 20.4769 61.5593 16.08 59.8889 12.9813C58.3815 10.2175 55.6111 8.71 52.3519 8.91938C51.0074 9.00313 49.6222 9.2125 49.2556 9.38C48.6852 9.63125 48.563 9.29625 48.4 7.37C48.0333 2.93126 44.8556 3.8147e-06 40.4148 3.8147e-06C37.6852 3.8147e-06 35.9741 0.753754 34.3037 2.68L33 4.22938L31.6963 2.68C30.963 1.84251 29.7815 0.879379 29.0482 0.586254C27.1741 -0.251244 23.7111 -0.125622 21.7148 0.795631ZM28.8852 2.13563C30.7593 3.30813 31.6556 4.48063 32.1445 6.49063C32.4704 7.87251 32.2667 10.385 30.963 20.1C30.0667 26.6744 29.2111 32.495 29.0889 33.0813C28.8445 34.0863 28.8037 34.0863 28.2333 32.6625C27.9074 31.8669 25.6259 26.3813 23.1815 20.4769C18.2926 8.62626 18.0889 7.70501 19.7593 4.73188C21.6333 1.46563 25.9111 0.251255 28.8852 2.13563ZM43.4704 1.96813C45.3852 2.88938 47.2593 5.90438 47.2593 8.04C47.2593 9.08688 45.6704 13.4838 42.2889 21.775C39.5593 28.4331 37.2778 33.835 37.1963 33.7931C36.9519 33.5419 34.2222 14.0281 34.2222 12.5206C34.2222 11.3481 34.4667 10.72 35.2408 10.1338C36.5852 9.045 36.5445 8.79375 34.8333 8.79375C33.4482 8.79375 33.4482 8.75188 33.6926 7.41188C34.1408 4.89938 35.5259 2.97313 37.6852 1.75875C38.9074 1.04688 41.8408 1.1725 43.4704 1.96813ZM17.1926 11.39C17.9259 11.9763 18.7815 12.8975 19.0667 13.4419C20.1667 15.6613 28.8037 36.4313 28.6 36.4313C28.2333 36.4313 9.9815 23.3663 8.80002 22.2356C5.37779 19.0113 5.9889 13.4 9.9815 10.9713C12.1815 9.67313 15.2371 9.84063 17.1926 11.39ZM55.8148 10.9713C58.3408 12.3113 59.563 14.5306 59.3593 17.5038C59.1963 20.1419 58.4222 21.3563 55.3667 23.7013C51.7408 26.5069 37.7259 36.3894 37.563 36.2638C37.3593 36.0125 46.8111 13.6931 47.5852 12.6044C48.6037 11.2225 50.8445 10.05 52.5556 10.05C53.3704 10.05 54.8371 10.4688 55.8148 10.9713ZM11.0408 25.6275C12.0185 26.1719 16.663 29.3125 21.3074 32.6625L29.7815 38.7344L18.4556 38.86C5.66298 38.9856 4.52224 38.7763 2.56668 36.1381C0.570386 33.4581 0.855571 28.8519 3.09631 26.7163C5.45927 24.5388 8.1889 24.1619 11.0408 25.6275ZM61.7222 25.9625C66.5704 29.0194 65.2259 37.7294 59.7667 38.7344C59.0333 38.86 53.5333 38.9019 47.463 38.86L36.463 38.7344L45.4259 32.2856C50.3556 28.7263 55.0408 25.5438 55.8148 25.2506C57.6482 24.5388 59.8889 24.79 61.7222 25.9625Z" fill="#ECECEC"/>
</g>
<defs>
<clipPath id="clip0_73_53">
<rect width="66" height="67" fill="white"/>
</clipPath>
</defs>
</svg>
