<svg width="133" height="50" viewBox="0 0 133 50" fill="none" xmlns="http://www.w3.org/2000/svg">
<path d="M0.0498047 17.691V35.3821H5.44848H10.8471V29.6512V23.9203H15.6644H20.4817V19.02V14.1196H15.6644H10.8471V11.9602V9.80068H16.7608H22.691L22.5913 8.42195C22.5249 7.67444 22.4086 5.63125 22.3089 3.90367C22.2093 2.15948 22.093 0.581413 22.0432 0.365467L21.9767 1.90735e-05H11.0133H0.0498047V17.691Z" fill="#F8EEEE" fill-opacity="0.9"/>
<path d="M37.093 0.116287C30.0166 1.22924 24.3688 6.3123 22.5249 13.206C22.1429 14.6844 22.093 15.1661 22.093 17.608C22.093 20.0332 22.1429 20.5316 22.5249 22.01C23.0897 24.1694 24.485 26.9601 25.8472 28.6711C31.4784 35.7309 41.711 37.392 49.2525 32.4419C52.4419 30.3488 55.0664 26.9601 56.2957 23.3555C57.5415 19.7342 57.4917 15.1661 56.196 11.6113C54.0365 5.69768 49.0365 1.42858 42.907 0.265789C41.6611 0.0166206 38.206 -0.0664368 37.093 0.116287ZM40.8306 7.7907C41.7608 8.20599 42.3422 8.97011 42.5747 10.0332C42.691 10.6312 42.7409 13.289 42.7076 18.206C42.6578 26.4452 42.6578 26.3455 41.3621 27.2093C40.8139 27.5748 40.4983 27.6578 39.6844 27.6578C38.4718 27.6578 37.7741 27.2425 37.2425 26.2292C36.9269 25.598 36.9269 25.299 36.9601 17.4585L37.01 9.33556L37.5249 8.68772C38.4551 7.50831 39.5681 7.20931 40.8306 7.7907Z" fill="#F8EEEE" fill-opacity="0.9"/>
<path d="M52.0598 0.365467C52.1761 0.581413 52.7409 1.61131 53.3389 2.65783C54.3854 4.50168 56.0631 7.4751 59.8505 14.2027C60.8638 15.9967 61.6777 17.5249 61.6777 17.6246C61.6777 17.7243 59.4684 21.711 56.7774 26.495C54.0864 31.2625 51.8771 35.216 51.8771 35.2824C51.8771 35.3322 54.4851 35.3821 57.6578 35.3821H63.4552L65.4983 31.7276C66.6445 29.7176 67.6246 28.1396 67.7077 28.2226C67.7741 28.2891 68.7209 29.917 69.7841 31.8273L71.7442 35.299L77.5083 35.3489C81.6944 35.3821 83.2724 35.3322 83.2724 35.1994C83.2724 35.0997 82.907 34.3688 82.4585 33.5714C82.01 32.7907 80.515 30.1163 79.1196 27.6578C77.7243 25.1827 75.8804 21.9269 75.0332 20.3987L73.4718 17.6246L77.4751 10.515C82.9734 0.764137 83.2724 0.232578 83.2724 0.116299C83.2724 0.0498543 80.6977 1.90735e-05 77.5581 1.90735e-05H71.8272L69.8837 3.43856C68.804 5.34886 67.8572 6.97676 67.7575 7.09304C67.6246 7.24254 67.0432 6.37876 65.4983 3.6545L63.4219 1.90735e-05H57.6412H51.8605L52.0598 0.365467Z" fill="#F8EEEE" fill-opacity="0.9"/>
<path d="M91.6943 0.365467C91.2624 1.06314 86.7774 9.2359 86.6611 9.51829C86.5614 9.76746 86.7774 9.80068 88.9036 9.80068H91.2458V22.5914V35.3821H96.6445H102.043V17.691V1.90735e-05H96.9767H91.9103L91.6943 0.365467Z" fill="#F8EEEE" fill-opacity="0.9"/>
<path d="M105.864 4.90034V9.80067H113.439H121.013L121.578 10.3655C122.043 10.8306 122.143 11.0465 122.143 11.6611C122.143 12.0598 122.027 12.5581 121.877 12.7575C121.312 13.588 121.013 13.6213 115.748 13.6213H110.847V17.691V21.7608H115.664C120.847 21.7608 121.329 21.8272 121.877 22.608C122.027 22.8239 122.143 23.3057 122.143 23.6711C122.143 24.0366 122.027 24.5183 121.877 24.7342C121.312 25.5316 120.93 25.5814 114.535 25.5814H108.571L105.98 30.1993C104.552 32.7243 103.339 34.9336 103.272 35.0997C103.173 35.3821 103.638 35.3987 113.771 35.3488C123.239 35.2824 124.485 35.2492 125.365 35C128.87 33.9701 131.811 31.0133 132.674 27.6412C132.99 26.4452 133.023 23.9867 132.757 22.7243C132.508 21.5781 131.645 19.7176 130.93 18.7708C130.615 18.3555 130.299 17.9236 130.233 17.8239C130.15 17.691 130.365 17.2591 130.764 16.7276C132.824 14.0033 133.422 10.3821 132.375 7.0432C131.329 3.78738 128.472 1.11296 125.05 0.249176C124.236 0.049839 122.542 7.62939e-06 114.967 7.62939e-06H105.864V4.90034Z" fill="#F8EEEE" fill-opacity="0.9"/>
<path d="M2.29236 39.9336C1.92691 40.0499 1.41196 40.2824 1.16279 40.4485C0.116279 41.1296 -0.282392 43.0565 0.38206 44.1528C0.813953 44.8505 2.0598 45.6312 2.95681 45.7641C3.73754 45.897 4.83389 46.4452 5.08306 46.8771C5.34884 47.2924 4.93355 47.6744 4.25249 47.6744C3.77076 47.6744 3.65448 47.5914 3.48837 47.1761L3.30565 46.6778H1.66113H0L0.0996678 47.4419C0.199336 48.3887 0.614618 48.9701 1.56146 49.5017C2.22591 49.8837 2.45847 49.917 4.38538 49.917C6.42857 49.917 6.4784 49.9004 7.09302 49.4352C8.00664 48.7542 8.35548 48.0731 8.35548 47.0432C8.35548 45.0499 7.27575 44.0366 4.4186 43.3721C3.95349 43.2558 3.45515 43.0399 3.30565 42.8738C3.07309 42.6246 3.07309 42.5582 3.30565 42.2259C3.73754 41.6113 4.701 41.8439 4.701 42.5582C4.701 42.8239 4.86711 42.8572 6.37874 42.8572H8.05648L7.9402 42.2259C7.75747 41.2293 7.32558 40.6645 6.37874 40.1661C5.63123 39.7675 5.299 39.701 4.21927 39.7176C3.52159 39.7176 2.65781 39.8173 2.29236 39.9336Z" fill="#F8EEEE" fill-opacity="0.9"/>
<path d="M20.8472 44.8007L20.897 49.7508L24.2691 49.8007L27.6246 49.8339V48.505V47.1761H25.7974H23.9701V46.5947V46.0133H25.7974H27.6246V44.7674V43.5216H25.7974H23.9701V42.9402V42.3588H25.7974H27.6246V41.113V39.8671H24.2193H20.814L20.8472 44.8007Z" fill="#F8EEEE" fill-opacity="0.9"/>
<path d="M43.1727 40.1495C43.1229 40.3156 42.4584 42.4751 41.6777 44.9502C40.897 47.4253 40.2491 49.5349 40.2491 49.6512C40.2491 49.7674 40.7641 49.8339 41.8106 49.8339H43.3721L43.6545 49.0033L43.9369 48.1728H45.6644C46.9269 48.1728 47.392 48.2226 47.392 48.3721C47.392 48.4884 47.4751 48.8704 47.5747 49.2027L47.7408 49.8339H49.3023C50.1661 49.8339 50.8804 49.7841 50.8804 49.701C50.8804 49.6346 50.1993 47.392 49.3521 44.7176L47.8239 39.8671H45.5481C43.5216 39.8671 43.2558 39.9003 43.1727 40.1495ZM46.1295 44.1362C46.3621 44.9668 46.5614 45.6977 46.5614 45.7475C46.5614 45.7973 46.1129 45.8472 45.5648 45.8472C44.8505 45.8472 44.6013 45.7973 44.6511 45.6312C44.6844 45.5316 44.9169 44.7674 45.1495 43.9701C45.3986 43.1562 45.6146 42.5249 45.6478 42.5581C45.6644 42.5914 45.8804 43.289 46.1295 44.1362Z" fill="#F8EEEE" fill-opacity="0.9"/>
<path d="M63.0067 41.113V42.3588H63.9203H64.8339V46.0964V49.8505L66.3787 49.8007L67.907 49.7509L67.9568 46.0465L67.99 42.3588H68.9037H69.8173V41.113V39.8671H66.412H63.0067V41.113Z" fill="#F8EEEE" fill-opacity="0.9"/>
<path d="M83.6047 41.113V42.3588H84.5183H85.4319V46.0964V49.8339H87.01H88.5881V46.0964V42.3588H89.5847H90.5814V41.113V39.8671H87.093H83.6047V41.113Z" fill="#F8EEEE" fill-opacity="0.9"/>
<path d="M105.698 44.8505V49.8339H108.439H111.179V48.4219V47.01H110.017H108.854V43.4385V39.8671H107.276H105.698V44.8505Z" fill="#F8EEEE" fill-opacity="0.9"/>
<path d="M126.13 44.8505V49.8339H129.535H132.94V48.505V47.1761H131.113H129.286V46.5947V46.0133H131.113H132.94V44.7674V43.5216H131.113H129.286V42.9402V42.3588H131.113H132.94V41.113V39.8671H129.535H126.13V44.8505Z" fill="#F8EEEE" fill-opacity="0.9"/>
</svg>
