<svg width="30" height="30" viewBox="0 0 30 30" fill="none" xmlns="http://www.w3.org/2000/svg">
<g clip-path="url(#clip0_79_744)">
<path d="M15 0C19.0723 0 19.582 0.0175781 21.1875 0.09375C22.7813 0.164062 23.8711 0.421875 24.8262 0.791016C25.8105 1.17187 26.6484 1.6875 27.4805 2.51953C28.3184 3.35156 28.8281 4.18945 29.1973 5.18555C29.5664 6.13477 29.8242 7.23047 29.8945 8.82422C29.9648 10.4238 29.9824 10.9336 29.9824 15.0059C29.9824 19.0781 29.9648 19.5879 29.8945 21.1875C29.8242 22.7813 29.5664 23.8711 29.1973 24.8262C28.8164 25.8105 28.3008 26.6484 27.4688 27.4805C26.6367 28.3125 25.7988 28.8281 24.8145 29.209C23.8652 29.5781 22.7695 29.8359 21.1758 29.9062C19.5762 29.9766 19.0664 29.9941 14.9941 29.9941C10.9219 29.9941 10.4121 29.9766 8.8125 29.9062C7.21875 29.8359 6.12891 29.5781 5.17383 29.209C4.18945 28.8281 3.35156 28.3125 2.51953 27.4805C1.68164 26.6484 1.17187 25.8105 0.785156 24.8203C0.416016 23.8711 0.158203 22.7754 0.0878906 21.1816C0.0175781 19.582 0 19.0723 0 15C0 10.9277 0.0175781 10.418 0.0878906 8.8125C0.158203 7.21875 0.416016 6.12891 0.785156 5.17383C1.17187 4.18945 1.68164 3.35156 2.51953 2.51953C3.35156 1.68164 4.18945 1.17187 5.17969 0.785156C6.12891 0.416016 7.22461 0.158203 8.81836 0.0878906C10.418 0.0175781 10.9277 2.7444e-09 15 0ZM15 2.70117C10.9922 2.70117 10.5176 2.71875 8.94141 2.78906C7.48242 2.85352 6.68555 3.09961 6.1582 3.30469C5.46094 3.57422 4.96289 3.89648 4.43555 4.42383C3.91406 4.94531 3.58594 5.44922 3.31641 6.14648C3.11133 6.67383 2.86523 7.46484 2.80078 8.92969C2.73047 10.5059 2.71289 10.9805 2.71289 14.9883C2.71289 18.9902 2.73047 19.4648 2.80078 21.0469C2.86523 22.5059 3.11133 23.3027 3.31641 23.8301C3.58594 24.5273 3.9082 25.0254 4.43555 25.5527C4.95703 26.0742 5.46094 26.4023 6.1582 26.6719C6.68555 26.877 7.47656 27.123 8.94141 27.1875C10.5176 27.2578 10.9922 27.2754 15 27.2754C19.002 27.2754 19.4766 27.2578 21.0586 27.1875C22.5176 27.123 23.3145 26.877 23.8418 26.6719C24.5391 26.4023 25.0371 26.0801 25.5645 25.5527C26.0859 25.0313 26.4141 24.5273 26.6836 23.8301C26.8887 23.3027 27.1348 22.5117 27.1992 21.0469C27.2695 19.4707 27.2871 18.9961 27.2871 14.9883C27.2871 10.9863 27.2695 10.5117 27.1992 8.92969C27.1348 7.4707 26.8887 6.67383 26.6836 6.14648C26.4141 5.44922 26.0918 4.95117 25.5645 4.42383C25.043 3.90234 24.5391 3.57422 23.8418 3.30469C23.3145 3.09961 22.5234 2.85352 21.0586 2.78906C19.4824 2.71875 19.0078 2.70117 15 2.70117Z" fill="white"/>
<path d="M15 0C19.0723 0 19.582 0.0175781 21.1875 0.09375C22.7813 0.164062 23.8711 0.421875 24.8262 0.791016C25.8105 1.17187 26.6484 1.6875 27.4805 2.51953C28.3184 3.35156 28.8281 4.18945 29.1973 5.18555C29.5664 6.13477 29.8242 7.23047 29.8945 8.82422C29.9648 10.4238 29.9824 10.9336 29.9824 15.0059C29.9824 19.0781 29.9648 19.5879 29.8945 21.1875C29.8242 22.7813 29.5664 23.8711 29.1973 24.8262C28.8164 25.8105 28.3008 26.6484 27.4688 27.4805C26.6367 28.3125 25.7988 28.8281 24.8145 29.209C23.8652 29.5781 22.7695 29.8359 21.1758 29.9062C19.5762 29.9766 19.0664 29.9941 14.9941 29.9941C10.9219 29.9941 10.4121 29.9766 8.8125 29.9062C7.21875 29.8359 6.12891 29.5781 5.17383 29.209C4.18945 28.8281 3.35156 28.3125 2.51953 27.4805C1.68164 26.6484 1.17187 25.8105 0.785156 24.8203C0.416016 23.8711 0.158203 22.7754 0.0878906 21.1816C0.0175781 19.582 0 19.0723 0 15C0 10.9277 0.0175781 10.418 0.0878906 8.8125C0.158203 7.21875 0.416016 6.12891 0.785156 5.17383C1.17187 4.18945 1.68164 3.35156 2.51953 2.51953C3.35156 1.68164 4.18945 1.17187 5.17969 0.785156C6.12891 0.416016 7.22461 0.158203 8.81836 0.0878906C10.418 0.0175781 10.9277 2.7444e-09 15 0ZM15 2.70117C10.9922 2.70117 10.5176 2.71875 8.94141 2.78906C7.48242 2.85352 6.68555 3.09961 6.1582 3.30469C5.46094 3.57422 4.96289 3.89648 4.43555 4.42383C3.91406 4.94531 3.58594 5.44922 3.31641 6.14648C3.11133 6.67383 2.86523 7.46484 2.80078 8.92969C2.73047 10.5059 2.71289 10.9805 2.71289 14.9883C2.71289 18.9902 2.73047 19.4648 2.80078 21.0469C2.86523 22.5059 3.11133 23.3027 3.31641 23.8301C3.58594 24.5273 3.9082 25.0254 4.43555 25.5527C4.95703 26.0742 5.46094 26.4023 6.1582 26.6719C6.68555 26.877 7.47656 27.123 8.94141 27.1875C10.5176 27.2578 10.9922 27.2754 15 27.2754C19.002 27.2754 19.4766 27.2578 21.0586 27.1875C22.5176 27.123 23.3145 26.877 23.8418 26.6719C24.5391 26.4023 25.0371 26.0801 25.5645 25.5527C26.0859 25.0313 26.4141 24.5273 26.6836 23.8301C26.8887 23.3027 27.1348 22.5117 27.1992 21.0469C27.2695 19.4707 27.2871 18.9961 27.2871 14.9883C27.2871 10.9863 27.2695 10.5117 27.1992 8.92969C27.1348 7.4707 26.8887 6.67383 26.6836 6.14648C26.4141 5.44922 26.0918 4.95117 25.5645 4.42383C25.043 3.90234 24.5391 3.57422 23.8418 3.30469C23.3145 3.09961 22.5234 2.85352 21.0586 2.78906C19.4824 2.71875 19.0078 2.70117 15 2.70117Z" stroke="white"/>
<path d="M15 7.29492C10.7461 7.29492 7.29492 10.7461 7.29492 15C7.29492 19.2539 10.7461 22.7051 15 22.7051C19.2539 22.7051 22.7051 19.2539 22.7051 15C22.7051 10.7461 19.2539 7.29492 15 7.29492ZM15 19.998C12.2402 19.998 10.002 17.7598 10.002 15C10.002 12.2402 12.2402 10.002 15 10.002C17.7598 10.002 19.998 12.2402 19.998 15C19.998 17.7598 17.7598 19.998 15 19.998Z" fill="white"/>
<path d="M24.8086 6.99027C24.8086 7.98636 24 8.7891 23.0098 8.7891C22.0137 8.7891 21.2109 7.9805 21.2109 6.99027C21.2109 5.99417 22.0195 5.19144 23.0098 5.19144C24 5.19144 24.8086 6.00003 24.8086 6.99027Z" fill="white"/>
</g>
<defs>
<clipPath id="clip0_79_744">
<rect width="30" height="30" fill="white"/>
</clipPath>
</defs>
</svg>
