<svg width="321" height="174" viewBox="0 0 321 174" fill="none" xmlns="http://www.w3.org/2000/svg">
<path d="M52.0752 17.336C52.0752 18.3253 51.8419 19.2587 51.3752 20.136C50.9085 21.0133 50.1619 21.732 49.1352 22.292C48.1085 22.8333 46.7925 23.104 45.1872 23.104H41.6592V31H38.4672V11.54H45.1872C46.6805 11.54 47.9405 11.8013 48.9672 12.324C50.0125 12.828 50.7872 13.5187 51.2912 14.396C51.8139 15.2733 52.0752 16.2533 52.0752 17.336ZM45.1872 20.5C46.4005 20.5 47.3059 20.2293 47.9032 19.688C48.5005 19.128 48.7992 18.344 48.7992 17.336C48.7992 15.208 47.5952 14.144 45.1872 14.144H41.6592V20.5H45.1872ZM66.8515 27.024H58.7035L57.3035 31H53.9715L60.9435 11.512H64.6395L71.6115 31H68.2515L66.8515 27.024ZM65.9555 24.42L62.7915 15.376L59.5995 24.42H65.9555ZM84.751 31L80.271 23.216H77.835V31H74.643V11.54H81.363C82.8563 11.54 84.1163 11.8013 85.143 12.324C86.1883 12.8467 86.963 13.5467 87.467 14.424C87.9896 15.3013 88.251 16.2813 88.251 17.364C88.251 18.6333 87.8776 19.7907 87.131 20.836C86.403 21.8627 85.2736 22.5627 83.743 22.936L88.559 31H84.751ZM77.835 20.668H81.363C82.5576 20.668 83.4536 20.3693 84.051 19.772C84.667 19.1747 84.975 18.372 84.975 17.364C84.975 16.356 84.6763 15.572 84.079 15.012C83.4816 14.4333 82.5763 14.144 81.363 14.144H77.835V20.668ZM91.2704 21.228C91.2704 19.324 91.709 17.616 92.5864 16.104C93.4824 14.592 94.6864 13.416 96.1984 12.576C97.729 11.7173 99.3997 11.288 101.21 11.288C103.282 11.288 105.121 11.8013 106.726 12.828C108.35 13.836 109.526 15.2733 110.254 17.14H106.418C105.914 16.1133 105.214 15.348 104.318 14.844C103.422 14.34 102.386 14.088 101.21 14.088C99.9224 14.088 98.7744 14.3773 97.7664 14.956C96.7584 15.5347 95.965 16.3653 95.3864 17.448C94.8264 18.5307 94.5464 19.7907 94.5464 21.228C94.5464 22.6653 94.8264 23.9253 95.3864 25.008C95.965 26.0907 96.7584 26.9307 97.7664 27.528C98.7744 28.1067 99.9224 28.396 101.21 28.396C102.386 28.396 103.422 28.144 104.318 27.64C105.214 27.136 105.914 26.3707 106.418 25.344H110.254C109.526 27.2107 108.35 28.648 106.726 29.656C105.121 30.664 103.282 31.168 101.21 31.168C99.381 31.168 97.7104 30.748 96.1984 29.908C94.6864 29.0493 93.4824 27.864 92.5864 26.352C91.709 24.84 91.2704 23.132 91.2704 21.228ZM117.183 14.116V19.828H123.903V22.432H117.183V28.396H124.743V31H113.991V11.512H124.743V14.116H117.183ZM131.866 11.54V31H128.674V11.54H131.866ZM146.165 31L141.685 23.216H139.249V31H136.057V11.54H142.777C144.27 11.54 145.53 11.8013 146.557 12.324C147.602 12.8467 148.377 13.5467 148.881 14.424C149.404 15.3013 149.665 16.2813 149.665 17.364C149.665 18.6333 149.292 19.7907 148.545 20.836C147.817 21.8627 146.688 22.5627 145.157 22.936L149.973 31H146.165ZM139.249 20.668H142.777C143.972 20.668 144.868 20.3693 145.465 19.772C146.081 19.1747 146.389 18.372 146.389 17.364C146.389 16.356 146.09 15.572 145.493 15.012C144.896 14.4333 143.99 14.144 142.777 14.144H139.249V20.668ZM162.624 31.196C160.814 31.196 159.143 30.776 157.612 29.936C156.1 29.0773 154.896 27.892 154 26.38C153.123 24.8493 152.684 23.132 152.684 21.228C152.684 19.324 153.123 17.616 154 16.104C154.896 14.592 156.1 13.416 157.612 12.576C159.143 11.7173 160.814 11.288 162.624 11.288C164.454 11.288 166.124 11.7173 167.636 12.576C169.167 13.416 170.371 14.592 171.248 16.104C172.126 17.616 172.564 19.324 172.564 21.228C172.564 23.132 172.126 24.8493 171.248 26.38C170.371 27.892 169.167 29.0773 167.636 29.936C166.124 30.776 164.454 31.196 162.624 31.196ZM162.624 28.424C163.912 28.424 165.06 28.1347 166.068 27.556C167.076 26.9587 167.86 26.1187 168.42 25.036C168.999 23.9347 169.288 22.6653 169.288 21.228C169.288 19.7907 168.999 18.5307 168.42 17.448C167.86 16.3653 167.076 15.5347 166.068 14.956C165.06 14.3773 163.912 14.088 162.624 14.088C161.336 14.088 160.188 14.3773 159.18 14.956C158.172 15.5347 157.379 16.3653 156.8 17.448C156.24 18.5307 155.96 19.7907 155.96 21.228C155.96 22.6653 156.24 23.9347 156.8 25.036C157.379 26.1187 158.172 26.9587 159.18 27.556C160.188 28.1347 161.336 28.424 162.624 28.424ZM189.335 11.54C191.407 11.54 193.218 11.9413 194.767 12.744C196.335 13.528 197.539 14.6667 198.379 16.16C199.238 17.6347 199.667 19.3613 199.667 21.34C199.667 23.3187 199.238 25.036 198.379 26.492C197.539 27.948 196.335 29.068 194.767 29.852C193.218 30.6173 191.407 31 189.335 31H182.979V11.54H189.335ZM189.335 28.396C191.612 28.396 193.358 27.78 194.571 26.548C195.784 25.316 196.391 23.58 196.391 21.34C196.391 19.0813 195.784 17.3173 194.571 16.048C193.358 14.7787 191.612 14.144 189.335 14.144H186.171V28.396H189.335ZM206.022 14.116V19.828H212.742V22.432H206.022V28.396H213.582V31H202.83V11.512H213.582V14.116H206.022ZM245.284 11.54V31H242.092V17.672L236.156 31H233.944L227.98 17.672V31H224.788V11.54H228.232L235.064 26.8L241.868 11.54H245.284ZM252.671 11.54V31H249.479V11.54H252.671ZM253.959 7.368L247.771 10.42V8.068L253.959 4.652V7.368ZM263.218 11.54C265.29 11.54 267.1 11.9413 268.65 12.744C270.218 13.528 271.422 14.6667 272.262 16.16C273.12 17.6347 273.55 19.3613 273.55 21.34C273.55 23.3187 273.12 25.036 272.262 26.492C271.422 27.948 270.218 29.068 268.65 29.852C267.1 30.6173 265.29 31 263.218 31H256.862V11.54H263.218ZM263.218 28.396C265.495 28.396 267.24 27.78 268.454 26.548C269.667 25.316 270.274 23.58 270.274 21.34C270.274 19.0813 269.667 17.3173 268.454 16.048C267.24 14.7787 265.495 14.144 263.218 14.144H260.054V28.396H263.218ZM279.905 11.54V31H276.713V11.54H279.905ZM295.828 27.024H287.68L286.28 31H282.948L289.92 11.512H293.616L300.588 31H297.228L295.828 27.024ZM294.932 24.42L291.768 15.376L288.576 24.42H294.932Z" fill="#F8EEEE" fill-opacity="0.9"/>
<path d="M80.768 96.294C78.808 96.294 77.044 95.958 75.476 95.286C73.908 94.586 72.676 93.606 71.78 92.346C70.884 91.086 70.436 89.616 70.436 87.936H75.56C75.672 89.196 76.162 90.232 77.03 91.044C77.926 91.856 79.172 92.262 80.768 92.262C82.42 92.262 83.708 91.87 84.632 91.086C85.556 90.274 86.018 89.238 86.018 87.978C86.018 86.998 85.724 86.2 85.136 85.584C84.576 84.968 83.862 84.492 82.994 84.156C82.154 83.82 80.978 83.456 79.466 83.064C77.562 82.56 76.008 82.056 74.804 81.552C73.628 81.02 72.62 80.208 71.78 79.116C70.94 78.024 70.52 76.568 70.52 74.748C70.52 73.068 70.94 71.598 71.78 70.338C72.62 69.078 73.796 68.112 75.308 67.44C76.82 66.768 78.57 66.432 80.558 66.432C83.386 66.432 85.696 67.146 87.488 68.574C89.308 69.974 90.316 71.906 90.512 74.37H85.22C85.136 73.306 84.632 72.396 83.708 71.64C82.784 70.884 81.566 70.506 80.054 70.506C78.682 70.506 77.562 70.856 76.694 71.556C75.826 72.256 75.392 73.264 75.392 74.58C75.392 75.476 75.658 76.218 76.19 76.806C76.75 77.366 77.45 77.814 78.29 78.15C79.13 78.486 80.278 78.85 81.734 79.242C83.666 79.774 85.234 80.306 86.438 80.838C87.67 81.37 88.706 82.196 89.546 83.316C90.414 84.408 90.848 85.878 90.848 87.726C90.848 89.21 90.442 90.61 89.63 91.926C88.846 93.242 87.684 94.306 86.144 95.118C84.632 95.902 82.84 96.294 80.768 96.294ZM101.286 70.674V79.242H111.366V83.148H101.286V92.094H112.626V96H96.4977V66.768H112.626V70.674H101.286ZM116.927 81.342C116.927 78.486 117.585 75.924 118.901 73.656C120.245 71.388 122.051 69.624 124.319 68.364C126.615 67.076 129.121 66.432 131.837 66.432C134.945 66.432 137.703 67.202 140.111 68.742C142.547 70.254 144.311 72.41 145.403 75.21H139.649C138.893 73.67 137.843 72.522 136.499 71.766C135.155 71.01 133.601 70.632 131.837 70.632C129.905 70.632 128.183 71.066 126.671 71.934C125.159 72.802 123.969 74.048 123.101 75.672C122.261 77.296 121.841 79.186 121.841 81.342C121.841 83.498 122.261 85.388 123.101 87.012C123.969 88.636 125.159 89.896 126.671 90.792C128.183 91.66 129.905 92.094 131.837 92.094C133.601 92.094 135.155 91.716 136.499 90.96C137.843 90.204 138.893 89.056 139.649 87.516H145.403C144.311 90.316 142.547 92.472 140.111 93.984C137.703 95.496 134.945 96.252 131.837 96.252C129.093 96.252 126.587 95.622 124.319 94.362C122.051 93.074 120.245 91.296 118.901 89.028C117.585 86.76 116.927 84.198 116.927 81.342ZM166.169 96L159.449 84.324H155.795V96H151.007V66.81H161.087C163.327 66.81 165.217 67.202 166.757 67.986C168.325 68.77 169.487 69.82 170.243 71.136C171.027 72.452 171.419 73.922 171.419 75.546C171.419 77.45 170.859 79.186 169.739 80.754C168.647 82.294 166.953 83.344 164.657 83.904L171.881 96H166.169ZM155.795 80.502H161.087C162.879 80.502 164.223 80.054 165.119 79.158C166.043 78.262 166.505 77.058 166.505 75.546C166.505 74.034 166.057 72.858 165.161 72.018C164.265 71.15 162.907 70.716 161.087 70.716H155.795V80.502ZM182.333 70.674V79.242H192.413V83.148H182.333V92.094H193.673V96H177.545V66.768H193.673V70.674H182.333ZM218.428 66.81V70.716H210.658V96H205.87V70.716H198.058V66.81H218.428ZM101.894 102.81V132H97.106V112.008L88.202 132H84.884L75.938 112.008V132H71.15V102.81H76.316L86.564 125.7L96.77 102.81H101.894ZM112.975 106.674V115.242H123.055V119.148H112.975V128.094H124.315V132H108.187V102.768H124.315V106.674H112.975ZM139.747 102.81C142.855 102.81 145.571 103.412 147.895 104.616C150.247 105.792 152.053 107.5 153.312 109.74C154.601 111.952 155.245 114.542 155.245 117.51C155.245 120.478 154.601 123.054 153.312 125.238C152.053 127.422 150.247 129.102 147.895 130.278C145.571 131.426 142.855 132 139.747 132H130.213V102.81H139.747ZM139.747 128.094C143.163 128.094 145.781 127.17 147.601 125.322C149.421 123.474 150.331 120.87 150.331 117.51C150.331 114.122 149.421 111.476 147.601 109.572C145.781 107.668 143.163 106.716 139.747 106.716H135.001V128.094H139.747ZM164.778 102.81V132H159.99V102.81H164.778ZM188.662 126.036H176.44L174.34 132H169.342L179.8 102.768H185.344L195.802 132H190.762L188.662 126.036ZM187.318 122.13L182.572 108.564L177.784 122.13H187.318ZM95.132 168H90.344L75.938 146.202V168H71.15V138.768H75.938L90.344 160.524V138.768H95.132V168ZM106.208 142.674V151.242H116.288V155.148H106.208V164.094H117.548V168H101.42V138.768H117.548V142.674H106.208ZM142.303 138.81V142.716H134.533V168H129.745V142.716H121.933V138.81H142.303ZM185.162 138.81L176.51 168H171.092L164.96 145.908L158.45 168L153.074 168.042L144.8 138.81H149.882L155.93 162.582L162.482 138.81H167.858L173.948 162.456L180.038 138.81H185.162ZM202.425 168.294C199.709 168.294 197.203 167.664 194.907 166.404C192.639 165.116 190.833 163.338 189.489 161.07C188.173 158.774 187.515 156.198 187.515 153.342C187.515 150.486 188.173 147.924 189.489 145.656C190.833 143.388 192.639 141.624 194.907 140.364C197.203 139.076 199.709 138.432 202.425 138.432C205.169 138.432 207.675 139.076 209.943 140.364C212.239 141.624 214.045 143.388 215.361 145.656C216.677 147.924 217.335 150.486 217.335 153.342C217.335 156.198 216.677 158.774 215.361 161.07C214.045 163.338 212.239 165.116 209.943 166.404C207.675 167.664 205.169 168.294 202.425 168.294ZM202.425 164.136C204.357 164.136 206.079 163.702 207.591 162.834C209.103 161.938 210.279 160.678 211.119 159.054C211.987 157.402 212.421 155.498 212.421 153.342C212.421 151.186 211.987 149.296 211.119 147.672C210.279 146.048 209.103 144.802 207.591 143.934C206.079 143.066 204.357 142.632 202.425 142.632C200.493 142.632 198.771 143.066 197.259 143.934C195.747 144.802 194.557 146.048 193.689 147.672C192.849 149.296 192.429 151.186 192.429 153.342C192.429 155.498 192.849 157.402 193.689 159.054C194.557 160.678 195.747 161.938 197.259 162.834C198.771 163.702 200.493 164.136 202.425 164.136ZM237.208 168L230.488 156.324H226.834V168H222.046V138.81H232.126C234.366 138.81 236.256 139.202 237.796 139.986C239.364 140.77 240.526 141.82 241.282 143.136C242.066 144.452 242.458 145.922 242.458 147.546C242.458 149.45 241.898 151.186 240.778 152.754C239.686 154.294 237.992 155.344 235.696 155.904L242.92 168H237.208ZM226.834 152.502H232.126C233.918 152.502 235.262 152.054 236.158 151.158C237.082 150.262 237.544 149.058 237.544 147.546C237.544 146.034 237.096 144.858 236.2 144.018C235.304 143.15 233.946 142.716 232.126 142.716H226.834V152.502ZM264.67 168L253.372 154.938V168H248.584V138.81H253.372V152.124L264.712 138.81H270.718L258.034 153.426L270.928 168H264.67Z" fill="#F8EEEE" fill-opacity="0.9"/>
<path d="M59.3493 77.703L59.1589 83.5744L49.9687 81.8218L55.7758 89.1573L50.5382 92.1198L47.2836 83.4126L43.6237 92.0457L38.5881 88.9942L44.4373 81.6879L35.1461 82.9423L35.3381 76.6978L44.4736 78.4172L38.6549 71.2243L43.8925 68.2618L47.3113 77.0686L51.0592 68.4139L56.1495 71.4985L50.1028 78.7601L59.3493 77.703Z" fill="#F8EEEE" fill-opacity="0.9"/>
</svg>
